<?xml version="1.0" encoding="utf-8"?>
<!-- Generator: Adobe Illustrator 27.5.0, SVG Export Plug-In . SVG Version: 6.00 Build 0)  -->
<svg version="1.1" xmlns="http://www.w3.org/2000/svg" xmlns:xlink="http://www.w3.org/1999/xlink" x="0px" y="0px"
	 viewBox="0 0 500 500" style="enable-background:new 0 0 500 500;" xml:space="preserve">
<g id="BACKGROUND">
	<rect style="fill:#FFFFFF" width="500" height="500"/>
</g>
<g id="OBJECTS">
	<g>
		<g>
			<g>
				<g>
					<rect x="291.327" y="446.915" style="fill:#02A2CB;" width="32.116" height="1.586"/>
				</g>
				<g>
					<path style="fill:#02A2CB;" d="M291.725,451.013h-6.61v-6.61h6.61V451.013z M286.701,449.427h3.439v-3.438h-3.439V449.427z"/>
				</g>
				<g>
					<path style="fill:#02A2CB;" d="M329.26,451.013h-6.61v-6.61h6.61V451.013z M324.236,449.427h3.439v-3.438h-3.439V449.427z"/>
				</g>
				<g>
					<rect x="301.949" y="442.47" style="fill:#02A2CB;" width="10.476" height="10.476"/>
				</g>
			</g>
			<g>
				<g>
					<rect x="165.533" y="446.915" style="fill:#02A2CB;" width="32.116" height="1.586"/>
				</g>
				<g>
					<path style="fill:#02A2CB;" d="M165.931,451.013h-6.61v-6.61h6.61V451.013z M160.907,449.427h3.438v-3.438h-3.438V449.427z"/>
				</g>
				<g>
					<path style="fill:#02A2CB;" d="M203.466,451.013h-6.61v-6.61h6.61V451.013z M198.442,449.427h3.439v-3.438h-3.439V449.427z"/>
				</g>
				<g>
					<rect x="176.155" y="442.47" style="fill:#02A2CB;" width="10.476" height="10.476"/>
				</g>
			</g>
		</g>
		<g>
			<g>
				<g>
					<g>
						<path style="fill:#FEBB09;" d="M340.049,281.22c10.123,0.356,20.147,2.458,29.595,6.098
							c9.446,3.639,18.302,8.805,26.102,15.259c4.366,3.613,8.385,7.637,11.991,12.007c0.351,0.426,1-0.136,0.648-0.563
							c-6.49-7.865-14.328-14.592-23.027-19.906c-8.699-5.314-18.257-9.236-28.196-11.508c-5.597-1.28-11.305-2.041-17.043-2.243
							C339.569,280.345,339.496,281.2,340.049,281.22L340.049,281.22z"/>
					</g>
					<path style="fill:#FEBB09;" d="M360.118,284.271c6.082-5.861,14.428-12.453,22.983-16.163c4.841-2.1,10.19-3.833,15.737-3.775
						c2.625,0.027,5.439,0.556,7.043,2.1c2.384,2.292,1.052,5.811-1.512,8.053c-2.776,2.427-6.683,3.939-10.573,5.223
						C383.45,283.122,371.296,283.316,360.118,284.271"/>
					<path style="fill:#FEBB09;" d="M385.779,294.943c5.556-3.555,12.957-7.323,20.077-8.853c4.029-0.866,8.391-1.372,12.629-0.478
						c2.006,0.423,4.079,1.26,5.072,2.688c1.474,2.121-0.085,4.611-2.393,5.934c-2.498,1.433-5.722,1.992-8.897,2.378
						C403.821,297.641,394.484,295.926,385.779,294.943"/>
					<path style="fill:#FEBB09;" d="M389.291,296.93c8.109,2.362,17.979,6.324,25.453,11.9c4.23,3.156,8.393,6.934,11.102,11.775
						c1.282,2.291,2.223,4.995,1.682,7.155c-0.803,3.208-4.518,3.803-7.738,2.693c-3.487-1.202-6.741-3.839-9.789-6.575
						C401.892,316.6,395.678,306.153,389.291,296.93"/>
					<path style="fill:#FEBB09;" d="M368.779,286.314c4.865,5.107,10.434,12.186,13.819,19.591c1.916,4.191,3.584,8.85,3.9,13.773
						c0.149,2.33-0.072,4.851-1.145,6.351c-1.594,2.227-4.364,1.219-6.241-0.946c-2.031-2.343-3.438-5.734-4.669-9.121
						C371.168,306.952,370.232,296.182,368.779,286.314"/>
					<path style="fill:#FEBB09;" d="M353.85,282.186c3.12,3.276,6.693,7.817,8.865,12.567c1.229,2.688,2.299,5.677,2.502,8.835
						c0.096,1.494-0.046,3.112-0.734,4.074c-1.023,1.428-2.8,0.782-4.003-0.607c-1.303-1.503-2.206-3.679-2.995-5.851
						C355.383,295.424,354.782,288.516,353.85,282.186"/>
				</g>
				<g style="opacity:0.09;">
					<g>
						<path style="fill:#4B0263;" d="M233.62,326.216c-3.016,5.644-6.995,10.746-11.686,15.094
							c-4.69,4.347-10.083,7.935-15.913,10.566c-3.263,1.472-6.663,2.634-10.145,3.465c-0.339,0.081-0.201,0.605,0.139,0.524
							c6.266-1.496,12.261-4.072,17.694-7.529c5.433-3.457,10.314-7.79,14.366-12.796c2.282-2.819,4.301-5.846,6.01-9.045
							C234.249,326.187,233.785,325.908,233.62,326.216L233.62,326.216z"/>
					</g>
					<path style="fill:#4B0263;" d="M226.31,336.753c1.634,5.08,3.054,11.647,2.781,17.531c-0.154,3.33-0.658,6.846-2.233,9.977
						c-0.745,1.482-1.827,2.931-3.149,3.412c-1.963,0.715-3.589-1.018-4.148-3.096c-0.605-2.25-0.377-4.886-0.024-7.45
						C220.476,350.308,223.744,343.36,226.31,336.753"/>
					<path style="fill:#4B0263;" d="M213.122,348.344c0.472,4.14,0.553,9.387-0.559,13.851c-0.629,2.526-1.554,5.142-3.24,7.297
						c-0.798,1.02-1.849,1.964-2.935,2.13c-1.613,0.246-2.592-1.33-2.701-3.007c-0.118-1.815,0.461-3.799,1.124-5.708
						C206.577,357.829,210.145,353.009,213.122,348.344"/>
					<path style="fill:#4B0263;" d="M211.019,349.784c-3.594,3.944-8.585,8.442-13.826,11.131c-2.966,1.522-6.267,2.834-9.766,3.025
						c-1.656,0.09-3.452-0.128-4.526-1.035c-1.597-1.347-0.902-3.62,0.623-5.138c1.651-1.644,4.052-2.757,6.451-3.726
						C196.357,351.464,204.011,350.844,211.019,349.784"/>
					<path style="fill:#4B0263;" d="M222.743,341.099c-4.25,1.34-9.814,2.532-14.956,2.393c-2.91-0.078-6.017-0.427-8.897-1.616
						c-1.363-0.563-2.732-1.389-3.285-2.415c-0.82-1.523,0.522-2.815,2.272-3.277c1.894-0.501,4.209-0.356,6.473-0.113
						C210.371,336.717,216.741,339.18,222.743,341.099"/>
					<path style="fill:#4B0263;" d="M229.235,333.777c-2.726,0.86-6.295,1.624-9.594,1.535c-1.867-0.05-3.86-0.274-5.708-1.037
						c-0.874-0.361-1.753-0.891-2.107-1.549c-0.526-0.977,0.335-1.806,1.457-2.102c1.215-0.321,2.7-0.229,4.152-0.073
						C221.299,330.966,225.385,332.546,229.235,333.777"/>
				</g>
				<g style="opacity:0.09;">
					<g>
						<path style="fill:#4B0263;" d="M274.015,140.36c2.711-5.797,6.412-11.104,10.865-15.696
							c4.452-4.591,9.645-8.461,15.326-11.399c3.18-1.644,6.513-2.985,9.946-4.001c0.334-0.099,0.168-0.615-0.167-0.516
							c-6.177,1.828-12.026,4.72-17.267,8.462c-5.241,3.742-9.884,8.329-13.664,13.544c-2.128,2.937-3.983,6.067-5.519,9.353
							C273.388,140.422,273.867,140.676,274.015,140.36L274.015,140.36z"/>
					</g>
					<path style="fill:#4B0263;" d="M280.753,129.448c-1.902-4.985-3.671-11.467-3.711-17.358
						c-0.023-3.334,0.292-6.872,1.698-10.082c0.665-1.519,1.668-3.024,2.963-3.575c1.922-0.819,3.638,0.826,4.307,2.871
						c0.724,2.214,0.637,4.859,0.421,7.438C285.855,115.6,282.962,122.714,280.753,129.448"/>
					<path style="fill:#4B0263;" d="M293.303,117.17c-0.693-4.109-1.052-9.344-0.181-13.861c0.493-2.557,1.277-5.217,2.846-7.46
						c0.742-1.061,1.741-2.06,2.817-2.283c1.597-0.332,2.659,1.19,2.858,2.859c0.215,1.807-0.257,3.819-0.818,5.76
						C299.334,107.349,296.028,112.353,293.303,117.17"/>
					<path style="fill:#4B0263;" d="M295.327,115.62c3.379-4.13,8.123-8.888,13.213-11.853c2.881-1.678,6.107-3.164,9.591-3.541
						c1.649-0.178,3.453-0.057,4.575,0.792c1.666,1.26,1.093,3.567-0.349,5.164c-1.561,1.73-3.899,2.969-6.243,4.064
						C309.878,113.16,302.268,114.188,295.327,115.62"/>
					<path style="fill:#4B0263;" d="M284.083,124.918c4.172-1.565,9.665-3.052,14.807-3.188c2.91-0.077,6.031,0.105,8.971,1.14
						c1.391,0.489,2.802,1.242,3.409,2.236c0.9,1.477-0.371,2.839-2.094,3.394c-1.865,0.601-4.184,0.58-6.457,0.458
						C296.671,128.634,290.178,126.514,284.083,124.918"/>
					<path style="fill:#4B0263;" d="M277.99,132.575c2.676-1.004,6.2-1.957,9.498-2.045c1.867-0.049,3.869,0.068,5.755,0.731
						c0.892,0.314,1.798,0.796,2.187,1.435c0.577,0.948-0.238,1.821-1.343,2.177c-1.196,0.386-2.684,0.372-4.142,0.294
						C286.065,134.959,281.9,133.599,277.99,132.575"/>
				</g>
				<g>
					<g>
						<path style="fill:#FEBB09;" d="M129.181,167.829c-8.881,2.189-18.106,2.838-27.212,2.008
							c-9.103-0.829-18.07-3.131-26.438-6.812c-4.684-2.06-9.168-4.564-13.38-7.47c-0.41-0.283-0.835,0.365-0.424,0.649
							c7.579,5.229,16.047,9.138,24.915,11.607c8.867,2.469,18.138,3.516,27.331,3.036c5.177-0.27,10.323-1.017,15.357-2.258
							C129.814,168.47,129.666,167.709,129.181,167.829L129.181,167.829z"/>
					</g>
					<path style="fill:#FEBB09;" d="M110.996,170.132c-3.837,6.592-9.458,14.378-15.973,19.712
						c-3.687,3.019-7.905,5.844-12.738,7.163c-2.287,0.624-4.861,0.859-6.636-0.085c-2.636-1.403-2.348-4.788-0.674-7.368
						c1.813-2.794,4.833-5.071,7.895-7.146C91.013,176.889,101.522,173.721,110.996,170.132"/>
					<path style="fill:#FEBB09;" d="M86.073,167.196c-3.949,4.459-9.447,9.56-15.254,12.645c-3.286,1.746-6.95,3.263-10.852,3.532
						c-1.847,0.127-3.854-0.087-5.069-1.083c-1.804-1.478-1.064-4.026,0.613-5.745c1.816-1.861,4.478-3.142,7.141-4.261
						C69.735,169.307,78.268,168.491,86.073,167.196"/>
					<path style="fill:#FEBB09;" d="M82.531,166.337c-7.627-0.05-17.178-1.055-25.046-4.054c-4.453-1.697-9.002-3.951-12.55-7.488
						c-1.679-1.673-3.164-3.79-3.227-5.8c-0.094-2.985,2.986-4.419,6.057-4.249c3.325,0.183,6.803,1.67,10.126,3.295
						C66.731,152.362,74.707,159.903,82.531,166.337"/>
					<path style="fill:#FEBB09;" d="M102.968,170.495c-5.486-3.235-12.071-8.009-16.839-13.606
						c-2.699-3.167-5.298-6.803-6.787-11.001c-0.705-1.987-1.135-4.232-0.573-5.799c0.835-2.327,3.49-2.136,5.654-0.718
						c2.343,1.534,4.402,4.132,6.307,6.77C95.799,153.159,99.271,162.283,102.968,170.495"/>
					<path style="fill:#FEBB09;" d="M116.955,170.397c-3.519-2.076-7.743-5.138-10.802-8.728c-1.731-2.032-3.399-4.364-4.354-7.057
						c-0.452-1.274-0.728-2.715-0.368-3.72c0.536-1.493,2.239-1.37,3.627-0.461c1.503,0.984,2.824,2.651,4.046,4.343
						C112.356,159.276,114.583,165.128,116.955,170.397"/>
				</g>
			</g>
			<g>
				<polygon style="opacity:0.09;fill:#4B0263;" points="176.308,115.822 97.146,238.184 255.471,236.88 				"/>
				<circle style="opacity:0.45;fill:#FFD96E;" cx="182.995" cy="285.002" r="52.842"/>
				<rect x="232.631" y="166.461" style="opacity:0.45;fill:#FFD96E;" width="146.437" height="136.345"/>
			</g>
			<rect x="290.774" y="137.374" style="fill:none;stroke:#02A2CB;stroke-miterlimit:10;" width="122.656" height="114.203"/>
			<g>
				<rect x="100.348" y="304.262" style="fill:#1B1A1B;" width="22.675" height="22.675"/>
				<rect x="123.024" y="304.262" style="fill:#FEBB09;" width="22.675" height="22.675"/>
				<rect x="145.699" y="304.262" style="fill:#FF0B00;" width="22.675" height="22.675"/>
				<rect x="168.374" y="304.262" style="fill:#02A2CB;" width="22.675" height="22.675"/>
			</g>
			<g>
				<path style="fill:none;stroke:#FEBB09;stroke-miterlimit:10;" d="M339.473,310.431c0,10.856-8.801,19.657-19.657,19.657
					c-10.856,0-19.657-8.801-19.657-19.657c0-10.856,8.801-19.657,19.657-19.657C330.673,290.774,339.473,299.575,339.473,310.431z"
					/>
				<g>
					<g>
						<g>
							<path style="fill:#010305;" d="M319.612,285.002c0,0.454,0,0.908,0,1.363c0,1.236,0,2.472,0,3.708c0,1.819,0,3.638,0,5.457
								c0,2.229,0,4.457,0,6.685c0,2.431,0,4.861,0,7.292c0,2.464,0,4.928,0,7.393c0,2.298,0,4.596,0,6.893c0,1.941,0,3.883,0,5.824
								c0,1.391,0,2.781,0,4.171c0,0.662-0.014,1.325,0,1.986c0.001,0.028,0,0.057,0,0.085c0,0.985,1.531,0.986,1.531,0
								c0-0.454,0-0.909,0-1.363c0-1.236,0-2.472,0-3.708c0-1.819,0-3.638,0-5.457c0-2.228,0-4.457,0-6.685c0-2.431,0-4.861,0-7.292
								c0-2.464,0-4.928,0-7.393c0-2.298,0-4.596,0-6.893c0-1.941,0-3.883,0-5.824c0-1.391,0-2.781,0-4.171
								c0-0.662,0.014-1.325,0-1.987c-0.001-0.028,0-0.057,0-0.085C321.143,284.017,319.612,284.016,319.612,285.002
								L319.612,285.002z"/>
						</g>
					</g>
					<g>
						<g>
							<path style="fill:#010305;" d="M345.807,309.666c-0.454,0-0.909,0-1.363,0c-1.236,0-2.472,0-3.708,0
								c-1.819,0-3.638,0-5.457,0c-2.229,0-4.457,0-6.685,0c-2.431,0-4.861,0-7.292,0c-2.464,0-4.928,0-7.393,0
								c-2.298,0-4.596,0-6.893,0c-1.941,0-3.883,0-5.824,0c-1.391,0-2.781,0-4.171,0c-0.662,0-1.325-0.014-1.987,0
								c-0.028,0.001-0.057,0-0.085,0c-0.985,0-0.987,1.531,0,1.531c0.454,0,0.908,0,1.363,0c1.236,0,2.472,0,3.708,0
								c1.819,0,3.638,0,5.457,0c2.228,0,4.457,0,6.685,0c2.431,0,4.861,0,7.292,0c2.464,0,4.928,0,7.393,0c2.298,0,4.596,0,6.893,0
								c1.941,0,3.883,0,5.824,0c1.39,0,2.781,0,4.171,0c0.662,0,1.325,0.014,1.987,0c0.028-0.001,0.057,0,0.085,0
								C346.792,311.197,346.793,309.666,345.807,309.666L345.807,309.666z"/>
						</g>
					</g>
				</g>
			</g>
			<g>
				<g>
					<path style="fill:#FF0B00;" d="M84.792,271.344c-7.3,0-13.238-5.939-13.238-13.239c0-7.299,5.939-13.238,13.238-13.238
						c7.299,0,13.238,5.939,13.238,13.238C98.03,265.404,92.092,271.344,84.792,271.344z M84.792,245.523
						c-6.938,0-12.582,5.644-12.582,12.581c0,6.938,5.644,12.582,12.582,12.582c6.937,0,12.581-5.644,12.581-12.582
						C97.374,251.168,91.73,245.523,84.792,245.523z"/>
				</g>
				<g>
					<g>
						<g>
							<path style="fill:#010305;" d="M84.658,241.404c0,0.298,0,0.597,0,0.895c0,0.812,0,1.624,0,2.435c0,1.195,0,2.389,0,3.584
								c0,1.464,0,2.927,0,4.391c0,1.596,0,3.193,0,4.789c0,1.618,0,3.237,0,4.855c0,1.509,0,3.018,0,4.527c0,1.275,0,2.55,0,3.825
								c0,0.913,0,1.826,0,2.74c0,0.435-0.009,0.87,0,1.305c0,0.019,0,0.037,0,0.056c0,0.647,1.005,0.648,1.005,0
								c0-0.298,0-0.597,0-0.895c0-0.812,0-1.624,0-2.435c0-1.195,0-2.389,0-3.584c0-1.464,0-2.927,0-4.391c0-1.596,0-3.193,0-4.789
								c0-1.618,0-3.237,0-4.855c0-1.509,0-3.018,0-4.527c0-1.275,0-2.55,0-3.825c0-0.913,0-1.826,0-2.74
								c0-0.434,0.009-0.87,0-1.305c0-0.019,0-0.037,0-0.056C85.663,240.757,84.658,240.756,84.658,241.404L84.658,241.404z"/>
						</g>
					</g>
					<g>
						<g>
							<path style="fill:#010305;" d="M101.861,257.603c-0.298,0-0.597,0-0.895,0c-0.812,0-1.624,0-2.435,0
								c-1.195,0-2.389,0-3.584,0c-1.464,0-2.927,0-4.391,0c-1.596,0-3.193,0-4.789,0c-1.618,0-3.237,0-4.855,0
								c-1.509,0-3.018,0-4.527,0c-1.275,0-2.55,0-3.825,0c-0.913,0-1.826,0-2.74,0c-0.435,0-0.87-0.01-1.305,0
								c-0.019,0-0.037,0-0.056,0c-0.647,0-0.648,1.005,0,1.005c0.298,0,0.597,0,0.895,0c0.812,0,1.624,0,2.435,0
								c1.195,0,2.389,0,3.584,0c1.464,0,2.927,0,4.391,0c1.596,0,3.193,0,4.789,0c1.618,0,3.237,0,4.855,0c1.509,0,3.018,0,4.527,0
								c1.275,0,2.55,0,3.825,0c0.913,0,1.826,0,2.74,0c0.434,0,0.87,0.009,1.305,0c0.019,0,0.037,0,0.056,0
								C102.508,258.608,102.509,257.603,101.861,257.603L101.861,257.603z"/>
						</g>
					</g>
				</g>
			</g>
			<path style="fill:#FF0B00;" d="M340.659,124.67h31.396c2.116,0,3.927,1.515,4.302,3.597l2.314,12.871
				c1.296,7.208,7.568,12.453,14.891,12.453l0,0l-1.359-30.231c-0.251-5.587-4.853-9.987-10.445-9.987h-40.841h-21.691h-40.282
				c-5.905,0-10.765,4.646-11.03,10.545l-1.334,29.672l0,0c7.325,0,13.598-5.246,14.894-12.455l2.428-13.506
				c0.308-1.713,1.799-2.96,3.539-2.96h32.038c0.4,19.565,0.425,39.231,0.425,58.746v11.298c0,19.754-0.024,39.326-0.416,58.507
				l-14.322,1.534c-5.111,0.548-8.987,4.861-8.987,10.001l0,0h23.047h21.691h23.047l0,0c0-5.14-3.876-9.453-8.987-10.001
				l-14.318-1.534c-0.395-19.488-0.419-39.074-0.419-58.508v-11.298C340.238,163.581,340.262,143.928,340.659,124.67z"/>
			<g>
				<path style="fill:none;stroke:#4B0263;stroke-width:2;stroke-miterlimit:10;" d="M175.192,292.742h-51.78
					c-0.423,0-0.746-0.377-0.682-0.794l2.998-19.468c0.052-0.336,0.341-0.585,0.681-0.585h43.96c0.328,0,0.61,0.23,0.676,0.552
					L175.192,292.742L175.192,292.742z"/>
				<path style="fill:none;stroke:#4B0263;stroke-width:2;stroke-miterlimit:10;" d="M194.936,203.375l-41.341-68.367
					c-0.647-1.07-2.292-0.611-2.292,0.639v60.975c2.556,0.731,4.429,3.081,4.429,5.872c0,3.376-2.737,6.112-6.112,6.112
					c-3.376,0-6.112-2.737-6.112-6.112c0-2.844,1.945-5.227,4.576-5.91l0-61.124c0-1.232-1.606-1.705-2.274-0.669l-44.548,69.126
					c-0.219,0.339-0.258,0.764-0.105,1.138l24.356,59.385c0.19,0.464,0.642,0.767,1.143,0.767h43.404
					c0.506,0,0.961-0.309,1.148-0.779l23.819-59.958C195.169,204.111,195.136,203.706,194.936,203.375z"/>
			</g>
			<g>
				<path style="fill:none;stroke:#4B0263;stroke-width:2;stroke-miterlimit:10;" d="M83.066,130.955c0,0,59.386-59.385,133.618,0"
					/>
				<path style="fill:#4B0263;" d="M85.16,132.474c0,2.143-1.737,3.88-3.88,3.88c-2.143,0-3.88-1.737-3.88-3.88
					s1.737-3.88,3.88-3.88C83.423,128.594,85.16,130.331,85.16,132.474z"/>
				<circle style="fill:#4B0263;" cx="216.684" cy="132.474" r="3.88"/>
				<rect x="146.592" y="101.279" style="fill:#4B0263;" width="6.566" height="6.566"/>
			</g>
			<g>
				<g>
					<path style="fill:#02A2CB;" d="M103.705,355.873c23.755,19.004,44.973,18.016,58.588,13.838
						c14.787-4.536,24.082-13.7,24.174-13.793l0.885,0.885c-0.094,0.094-9.573,9.452-24.64,14.088
						c-13.916,4.282-35.585,5.32-59.789-14.042L103.705,355.873z"/>
				</g>
				<g>
					<path style="fill:#02A2CB;" d="M185.599,355.411c0-1.341,1.087-2.428,2.428-2.428c1.341,0,2.428,1.087,2.428,2.428
						c0,1.341-1.087,2.428-2.428,2.428C186.686,357.839,185.599,356.752,185.599,355.411z"/>
				</g>
				<g>
					<path style="fill:#02A2CB;" d="M100.887,355.411c0-1.341,1.087-2.428,2.428-2.428c1.341,0,2.428,1.087,2.428,2.428
						c0,1.341-1.087,2.428-2.428,2.428C101.974,357.839,100.887,356.752,100.887,355.411z"/>
				</g>
				<g>
					
						<rect x="143.058" y="370.82" transform="matrix(-1 -1.224647e-16 1.224647e-16 -1 290.2244 745.7487)" style="fill:#02A2CB;" width="4.108" height="4.108"/>
				</g>
			</g>
			<g>
				<g>
					<path style="fill:#02A2CB;" d="M425.79,198.601c-15.953-12.762-30.202-12.099-39.345-9.293
						c-9.93,3.046-16.172,9.201-16.234,9.262l-0.594-0.594c0.063-0.063,6.428-6.347,16.547-9.461
						c9.345-2.876,23.897-3.573,40.151,9.43L425.79,198.601z"/>
				</g>
				<g>
					<circle style="fill:#02A2CB;" cx="369.164" cy="198.911" r="1.63"/>
				</g>
				<g>
					<circle style="fill:#02A2CB;" cx="426.053" cy="198.911" r="1.63"/>
				</g>
				<g>
					<rect x="396.604" y="185.805" style="fill:#02A2CB;" width="2.758" height="2.759"/>
				</g>
			</g>
			<g>
				<g>
					<g>
						<path style="fill:#4B0263;" d="M230.924,199.098l-13.617,2.785c-0.111,0.023-0.216-0.059-0.222-0.172l-0.259-5.281
							c-0.005-0.091,0.058-0.172,0.148-0.19l11.561-2.365c0.086-0.018,0.173,0.028,0.207,0.109L230.924,199.098L230.924,199.098z"/>
						<path style="fill:#4B0263;" d="M231.309,174.535l-14.549-15.756c-0.228-0.247-0.636-0.038-0.568,0.291l3.28,16.035
							c0.712,0.055,1.331,0.572,1.481,1.306c0.182,0.888-0.391,1.755-1.279,1.936c-0.888,0.182-1.755-0.391-1.936-1.279
							c-0.153-0.748,0.23-1.479,0.885-1.8l-3.288-16.075c-0.066-0.324-0.514-0.362-0.634-0.054l-7.997,20.575
							c-0.039,0.101-0.027,0.215,0.034,0.305l9.6,14.307c0.075,0.112,0.21,0.167,0.342,0.14l11.415-2.335
							c0.133-0.027,0.236-0.133,0.26-0.267l3.039-17.049C231.41,174.716,231.38,174.611,231.309,174.535z"/>
					</g>
					
						<rect x="223.964" y="199.59" transform="matrix(0.9797 -0.2004 0.2004 0.9797 -42.3321 51.0497)" style="fill:#F60034;" width="14.082" height="70.088"/>
				</g>
				<g>
					
						<rect x="238.376" y="179.56" transform="matrix(0.9996 -0.0267 0.0267 0.9996 -5.6351 6.6203)" style="fill:#FEB604;" width="14.082" height="70.088"/>
					<g>
						<path style="fill:none;stroke:#4B0263;stroke-miterlimit:10;" d="M251.527,179.598l-13.894,0.371
							c-0.113,0.003-0.203-0.096-0.188-0.208l0.665-5.245c0.012-0.091,0.087-0.159,0.179-0.162l11.796-0.315
							c0.088-0.002,0.165,0.058,0.185,0.143L251.527,179.598C251.527,179.598,251.527,179.598,251.527,179.598z"/>
						<path style="fill:none;stroke:#4B0263;stroke-miterlimit:10;" d="M256.185,155.476l-11.583-18.049
							c-0.181-0.283-0.619-0.148-0.61,0.188l0.436,16.361c0.691,0.178,1.211,0.795,1.231,1.544c0.024,0.906-0.691,1.66-1.596,1.684
							c-0.906,0.024-1.66-0.691-1.684-1.596c-0.02-0.763,0.485-1.417,1.186-1.619l-0.438-16.401
							c-0.009-0.331-0.443-0.446-0.615-0.163l-11.459,18.868c-0.056,0.093-0.064,0.207-0.02,0.306l6.961,15.761
							c0.054,0.123,0.178,0.201,0.312,0.197l11.647-0.311c0.136-0.004,0.256-0.09,0.302-0.217l5.962-16.259
							C256.253,155.672,256.241,155.564,256.185,155.476z"/>
					</g>
				</g>
				<g>
					<polygon style="fill:#4B0263;" points="275.472,198.203 261.772,194.807 263.179,189.066 276.766,192.596 275.472,198.203 
											"/>
					
						<rect x="253.217" y="195.272" transform="matrix(0.9706 0.2406 -0.2406 0.9706 63.0599 -55.8527)" style="fill:#F60034;" width="14.082" height="70.088"/>
					<g>
						<polygon style="fill:none;stroke:#4B0263;stroke-miterlimit:10;" points="276.665,190.442 279.129,179.72 275.277,166.461 
							266.656,176.65 264.028,187.298 						"/>
						<line style="fill:none;stroke:#4B0263;stroke-miterlimit:10;" x1="270.291" y1="172.298" x2="277.437" y2="173.895"/>
					</g>
				</g>
				<g>
					<path style="fill:#4B0263;" d="M251.579,337.168h-15.182c-13.51,0-24.461-10.952-24.461-24.461v-65.713
						c0-1.819,1.475-3.294,3.294-3.294h58.374c1.846,0,3.342,1.496,3.342,3.342v64.76
						C276.947,325.811,265.59,337.168,251.579,337.168z"/>
					<rect x="211.937" y="253.764" style="opacity:0.2;fill:#FDF6E6;" width="65.01" height="8.683"/>
					<rect x="211.937" y="268.217" style="opacity:0.2;fill:#FDF6E6;" width="65.01" height="8.683"/>
				</g>
			</g>
			<g>
				
					<line style="fill:none;stroke:#4B0263;stroke-width:2;stroke-miterlimit:10;" x1="398.148" y1="234.634" x2="398.148" y2="373.375"/>
				
					<line style="fill:none;stroke:#4B0263;stroke-width:2;stroke-miterlimit:10;" x1="415.632" y1="358.004" x2="223.875" y2="358.004"/>
			</g>
			<g>
				<path style="fill:#4B0263;" d="M365.243,348.879l-1.14-3.344c-0.751-2.203-2.482-3.933-4.685-4.685l-3.343-1.14l3.405-1.242
					c2.1-0.766,3.755-2.421,4.521-4.521l1.242-3.405l0.87,2.735c0.842,2.647,2.916,4.721,5.564,5.564l2.735,0.87l-2.812,1.108
					c-2.401,0.946-4.091,1.711-5.249,5.249L365.243,348.879z"/>
				<path style="fill:#FCB610;" d="M423.153,270.337l-0.747-2.19c-0.492-1.443-1.626-2.577-3.069-3.069l-2.19-0.747l2.231-0.814
					c1.376-0.502,2.46-1.586,2.962-2.961l0.814-2.231l0.57,1.791c0.552,1.734,1.91,3.093,3.645,3.645l1.791,0.57l-1.842,0.726
					c-1.573,0.62-2.68,1.121-3.438,3.438L423.153,270.337z"/>
				<g>
					<path style="fill:#FCB610;" d="M339.669,352.14c-2.571,0-4.663-2.092-4.663-4.663c0-2.571,2.092-4.663,4.663-4.663
						c2.571,0,4.663,2.092,4.663,4.663C344.332,350.048,342.24,352.14,339.669,352.14z M339.669,344.214
						c-1.799,0-3.263,1.464-3.263,3.263c0,1.799,1.464,3.263,3.263,3.263c1.799,0,3.263-1.464,3.263-3.263
						C342.932,345.678,341.468,344.214,339.669,344.214z"/>
				</g>
				<g>
					<path style="fill:#FCB610;" d="M429.124,242.301c-1.135,0-2.059-0.923-2.059-2.059c0-1.135,0.923-2.059,2.059-2.059
						c1.135,0,2.059,0.924,2.059,2.059C431.182,241.378,430.259,242.301,429.124,242.301z M429.124,238.802
						c-0.794,0-1.441,0.646-1.441,1.441c0,0.794,0.646,1.441,1.441,1.441c0.794,0,1.441-0.646,1.441-1.441
						C430.564,239.448,429.918,238.802,429.124,238.802z"/>
				</g>
				<g>
					<path style="fill:#FCB610;" d="M285.115,340.666c-1.135,0-2.059-0.923-2.059-2.058c0-1.135,0.923-2.059,2.059-2.059
						s2.059,0.924,2.059,2.059C287.174,339.743,286.25,340.666,285.115,340.666z M285.115,337.167c-0.794,0-1.441,0.646-1.441,1.441
						c0,0.794,0.646,1.44,1.441,1.44c0.794,0,1.441-0.646,1.441-1.44C286.556,337.814,285.91,337.167,285.115,337.167z"/>
				</g>
			</g>
			<g>
				<path style="fill:#FCB610;" d="M231.397,117.013l-1.14-3.343c-0.751-2.203-2.482-3.933-4.685-4.685l-3.344-1.14l3.406-1.242
					c2.1-0.766,3.755-2.421,4.521-4.521l1.242-3.406l0.87,2.735c0.842,2.647,2.916,4.721,5.564,5.564l2.735,0.87l-2.812,1.108
					c-2.401,0.947-4.091,1.711-5.249,5.249L231.397,117.013z"/>
				<path style="fill:#FF0B00;" d="M63.042,215.592l-1.14-3.343c-0.751-2.203-2.482-3.934-4.685-4.685l-3.344-1.14l3.406-1.242
					c2.1-0.766,3.755-2.421,4.521-4.521l1.242-3.406l0.87,2.735c0.842,2.647,2.917,4.721,5.564,5.564l2.735,0.87l-2.812,1.108
					c-2.401,0.946-4.091,1.711-5.249,5.249L63.042,215.592z"/>
				<path style="fill:#4B0263;" d="M124.972,351.45l-0.799-2.342c-0.526-1.543-1.738-2.755-3.281-3.281l-2.342-0.799l2.385-0.87
					c1.471-0.536,2.63-1.695,3.166-3.166l0.87-2.385l0.609,1.915c0.59,1.854,2.042,3.307,3.896,3.897l1.915,0.609l-1.969,0.776
					c-1.682,0.663-2.865,1.198-3.676,3.676L124.972,351.45z"/>
				<g>
					<path style="fill:#FCB610;" d="M252.53,128.594c-2.571,0-4.663-2.092-4.663-4.663s2.092-4.663,4.663-4.663
						c2.571,0,4.663,2.092,4.663,4.663S255.101,128.594,252.53,128.594z M252.53,120.667c-1.799,0-3.263,1.464-3.263,3.263
						c0,1.799,1.464,3.263,3.263,3.263c1.799,0,3.263-1.464,3.263-3.263C255.793,122.131,254.329,120.667,252.53,120.667z"/>
				</g>
				<g>
					<path style="fill:#FCB610;" d="M81.28,308.925c-2.571,0-4.663-2.092-4.663-4.663c0-2.571,2.092-4.663,4.663-4.663
						c2.571,0,4.663,2.092,4.663,4.663C85.943,306.834,83.851,308.925,81.28,308.925z M81.28,300.999
						c-1.799,0-3.263,1.464-3.263,3.263c0,1.799,1.464,3.263,3.263,3.263c1.799,0,3.263-1.464,3.263-3.263
						C84.543,302.463,83.079,300.999,81.28,300.999z"/>
				</g>
				<g>
					<path style="fill:#FCB610;" d="M143.058,343.009c-1.135,0-2.059-0.923-2.059-2.059c0-1.135,0.923-2.059,2.059-2.059
						c1.135,0,2.059,0.924,2.059,2.059C145.117,342.086,144.193,343.009,143.058,343.009z M143.058,339.51
						c-0.794,0-1.441,0.646-1.441,1.441c0,0.794,0.646,1.441,1.441,1.441c0.794,0,1.441-0.646,1.441-1.441
						C144.499,340.156,143.853,339.51,143.058,339.51z"/>
				</g>
				<g>
					<path style="fill:#FCB610;" d="M121.2,136.591c-1.135,0-2.059-0.923-2.059-2.059c0-1.135,0.924-2.059,2.059-2.059
						c1.135,0,2.059,0.924,2.059,2.059C123.258,135.667,122.335,136.591,121.2,136.591z M121.2,133.092
						c-0.794,0-1.441,0.646-1.441,1.441c0,0.794,0.646,1.441,1.441,1.441c0.794,0,1.441-0.646,1.441-1.441
						C122.64,133.738,121.994,133.092,121.2,133.092z"/>
				</g>
				<g>
					<path style="fill:#FCB610;" d="M255.471,103.337c-1.135,0-2.059-0.923-2.059-2.058c0-1.135,0.923-2.059,2.059-2.059
						s2.059,0.924,2.059,2.059C257.53,102.414,256.606,103.337,255.471,103.337z M255.471,99.838c-0.794,0-1.441,0.646-1.441,1.441
						c0,0.794,0.646,1.44,1.441,1.44c0.794,0,1.441-0.646,1.441-1.44C256.912,100.484,256.266,99.838,255.471,99.838z"/>
				</g>
				<g>
					<path style="fill:#FCB610;" d="M78.748,231.186c-2.571,0-4.663-2.092-4.663-4.663s2.092-4.663,4.663-4.663
						c2.571,0,4.663,2.092,4.663,4.663S81.319,231.186,78.748,231.186z M78.748,223.26c-1.799,0-3.263,1.464-3.263,3.263
						c0,1.799,1.464,3.263,3.263,3.263c1.799,0,3.263-1.464,3.263-3.263C82.011,224.724,80.548,223.26,78.748,223.26z"/>
				</g>
			</g>
		</g>
	</g>
</g>
</svg>
